<?xml version="1.0" standalone="no"?>
<!DOCTYPE svg PUBLIC "-//W3C//DTD SVG 20010904//EN"
 "http://www.w3.org/TR/2001/REC-SVG-20010904/DTD/svg10.dtd">
<svg version="1.0" xmlns="http://www.w3.org/2000/svg"
 width="500.000000pt" height="500.000000pt" viewBox="0 0 500.000000 500.000000"
 preserveAspectRatio="xMidYMid meet">

<g transform="translate(0.000000,500.000000) scale(0.100000,-0.100000)"
fill="#000000" stroke="none">
<path d="M2580 2905 l0 -185 420 0 420 0 0 185 0 185 -420 0 -420 0 0 -185z"/>
<path d="M3520 2905 l0 -185 230 0 230 0 0 -465 0 -464 185 -3 185 -3 0 468 0
467 235 0 235 0 0 185 0 185 -650 0 -650 0 0 -185z"/>
<path d="M453 3061 c-100 -34 -158 -98 -190 -206 -15 -53 -17 -121 -21 -562
l-3 -503 185 0 186 0 0 645 0 645 -52 0 c-29 -1 -76 -9 -105 -19z"/>
<path d="M716 2902 l1 -177 646 -3 647 -2 0 180 0 180 -647 0 -648 0 1 -178z"/>
<path d="M2323 3061 c-63 -22 -116 -61 -149 -111 -52 -78 -54 -104 -54 -652
l0 -508 180 0 180 0 0 645 0 645 -52 0 c-29 -1 -76 -9 -105 -19z"/>
<path d="M722 2549 c16 -133 71 -214 176 -262 50 -22 49 -22 577 -30 l170 -2
3 -52 3 -53 -323 0 c-349 0 -388 -5 -472 -54 -78 -46 -120 -120 -134 -233 l-8
-73 509 0 c430 0 517 2 562 15 107 32 178 103 210 210 24 84 21 313 -6 392
-37 112 -124 183 -246 203 -32 6 -277 10 -544 10 l-485 0 8 -71z"/>
<path d="M2580 2435 l0 -185 103 0 c235 0 350 48 412 170 19 38 45 147 45 188
0 9 -73 12 -280 12 l-280 0 0 -185z"/>
</g>
</svg>
